<?xml version="1.0" encoding="UTF-8"?><svg id="footer" xmlns="http://www.w3.org/2000/svg" viewBox="0 0 610.81 492.39"><defs><style>.cls-1{fill:#5f86a5;}.cls-2{fill:#094b6b;}</style></defs><path class="cls-2" d="m.01,20.94c2.53-.01-.76-.02,3.48,0,.78,0,.2,0,1.24,0,18.15.13,23.83,27.96,31.2,40.88.93,1.64,19.34,30.03,41.04,33.54,24.43,3.96,30.65-37.43,60.54-40.88,23.72-2.73,30.51,20.24,52.33,17.82,34.72-3.86,40.99-64.62,66.69-64.98,26.08-.37,29.43,62.07,73.88,74.42,21.94,6.09,44.91-2.52,60.54-8.39,9.14-3.43,28.25-10.82,46.17-28.3,19.18-18.71,16.12-28.62,31.81-37.73,22.55-13.1,49.69-4.72,51.3-4.19,26.83,8.7,35.07,31.6,51.3,27.25,6.01-1.61,16.41-9.43,30.41-9.43,8.14,0,.79-.02,5.82,0,3.35.01,1.14,0,3.04,0v466.42H0C0,331.89,0,176.41.01,20.94Z"/><path class="cls-1" d="m606,88.8c-.12,0-.32,0,0,0h0Z"/><path class="cls-1" d="m607.77,88.8c-1.03,0-1.54,0-1.77,0,.22,0,.15,0-4.05,0-14,0-24.4,3.45-30.41,4.16-16.23,1.92-24.47-8.18-51.3-12.01-1.61-.23-28.75-3.93-51.3,1.85-15.69,4.02-12.63,8.39-31.81,16.63-17.92,7.7-37.04,10.96-46.17,12.47-15.63,2.58-38.59,6.38-60.54,3.7-44.45-5.44-47.79-32.96-73.88-32.8-25.7.16-31.98,26.94-66.69,28.64-21.82,1.07-28.61-9.06-52.33-7.85-29.89,1.52-36.11,19.76-60.54,18.02-21.7-1.55-40.11-14.06-41.04-14.78-7.37-5.69-13.05-17.96-31.2-18.02-1.04,0-.45,0-1.24,0-4.24,0-.95,0-3.48,0,0,56.35,0,112.7-.01,169.04h0v234.55h610.81V88.8c-1.9,0,.31,0-3.04,0Z"/></svg>